<mxfile host="app.diagrams.net" modified="2021-07-27T08:44:08.694Z" agent="5.0 (Macintosh; Intel Mac OS X 10_15_7) AppleWebKit/537.36 (KHTML, like Gecko) Chrome/91.0.4472.164 Safari/537.36" etag="Gp8aYI7Hg5WSdLLT4uWC" version="14.9.2" type="github">
  <diagram id="fjrZGpHGLL3Sn7Pny3cT" name="Page-1">
    <mxGraphModel dx="983" dy="530" grid="1" gridSize="10" guides="1" tooltips="1" connect="1" arrows="1" fold="1" page="1" pageScale="1" pageWidth="827" pageHeight="1169" math="0" shadow="0">
      <root>
        <mxCell id="0" />
        <mxCell id="1" parent="0" />
        <mxCell id="ySgAJ4QI3XLkfdpez1up-10" value="" style="edgeStyle=orthogonalEdgeStyle;rounded=0;orthogonalLoop=1;jettySize=auto;html=1;" edge="1" parent="1" source="ySgAJ4QI3XLkfdpez1up-2" target="ySgAJ4QI3XLkfdpez1up-4">
          <mxGeometry relative="1" as="geometry" />
        </mxCell>
        <mxCell id="ySgAJ4QI3XLkfdpez1up-2" value="" style="shape=actor;whiteSpace=wrap;html=1;" vertex="1" parent="1">
          <mxGeometry x="20" y="100" width="40" height="40" as="geometry" />
        </mxCell>
        <mxCell id="ySgAJ4QI3XLkfdpez1up-4" value="" style="verticalLabelPosition=bottom;verticalAlign=top;html=1;shape=mxgraph.basic.rect;fillColor2=none;strokeWidth=1;size=20;indent=5;fillColor=#60a917;strokeColor=#2D7600;fontColor=#ffffff;" vertex="1" parent="1">
          <mxGeometry x="150" y="80" width="120" height="210" as="geometry" />
        </mxCell>
        <mxCell id="ySgAJ4QI3XLkfdpez1up-5" value="" style="verticalLabelPosition=bottom;verticalAlign=top;html=1;shape=mxgraph.basic.rect;fillColor2=none;strokeWidth=1;size=20;indent=5;fillColor=#60a917;strokeColor=#2D7600;fontColor=#ffffff;" vertex="1" parent="1">
          <mxGeometry x="330" y="80" width="140" height="450" as="geometry" />
        </mxCell>
        <mxCell id="ySgAJ4QI3XLkfdpez1up-6" value="" style="verticalLabelPosition=bottom;verticalAlign=top;html=1;shape=mxgraph.basic.rect;fillColor2=none;strokeWidth=1;size=20;indent=5;fillColor=#008a00;strokeColor=#005700;fontColor=#ffffff;" vertex="1" parent="1">
          <mxGeometry x="560" y="80" width="120" height="190" as="geometry" />
        </mxCell>
        <mxCell id="ySgAJ4QI3XLkfdpez1up-7" value="" style="verticalLabelPosition=bottom;verticalAlign=top;html=1;shape=mxgraph.basic.rect;fillColor2=none;strokeWidth=1;size=20;indent=5;fillColor=#008a00;strokeColor=#005700;fontColor=#ffffff;" vertex="1" parent="1">
          <mxGeometry x="560" y="330" width="120" height="200" as="geometry" />
        </mxCell>
        <mxCell id="ySgAJ4QI3XLkfdpez1up-11" value="" style="edgeStyle=orthogonalEdgeStyle;rounded=0;orthogonalLoop=1;jettySize=auto;html=1;" edge="1" parent="1" source="ySgAJ4QI3XLkfdpez1up-8" target="ySgAJ4QI3XLkfdpez1up-4">
          <mxGeometry relative="1" as="geometry" />
        </mxCell>
        <mxCell id="ySgAJ4QI3XLkfdpez1up-8" value="" style="shape=actor;whiteSpace=wrap;html=1;" vertex="1" parent="1">
          <mxGeometry x="20" y="170" width="40" height="40" as="geometry" />
        </mxCell>
        <mxCell id="ySgAJ4QI3XLkfdpez1up-12" value="" style="edgeStyle=orthogonalEdgeStyle;rounded=0;orthogonalLoop=1;jettySize=auto;html=1;" edge="1" parent="1" source="ySgAJ4QI3XLkfdpez1up-9" target="ySgAJ4QI3XLkfdpez1up-4">
          <mxGeometry relative="1" as="geometry" />
        </mxCell>
        <mxCell id="ySgAJ4QI3XLkfdpez1up-13" value="代码提交" style="edgeLabel;html=1;align=center;verticalAlign=middle;resizable=0;points=[];" vertex="1" connectable="0" parent="ySgAJ4QI3XLkfdpez1up-12">
          <mxGeometry x="0.4375" y="4" relative="1" as="geometry">
            <mxPoint x="-4" y="3" as="offset" />
          </mxGeometry>
        </mxCell>
        <mxCell id="ySgAJ4QI3XLkfdpez1up-9" value="" style="shape=actor;whiteSpace=wrap;html=1;" vertex="1" parent="1">
          <mxGeometry x="20" y="240" width="40" height="40" as="geometry" />
        </mxCell>
        <mxCell id="ySgAJ4QI3XLkfdpez1up-15" value="开发人员" style="text;html=1;strokeColor=none;fillColor=none;align=center;verticalAlign=middle;whiteSpace=wrap;rounded=0;" vertex="1" parent="1">
          <mxGeometry x="15" y="140" width="50" height="20" as="geometry" />
        </mxCell>
        <mxCell id="ySgAJ4QI3XLkfdpez1up-16" value="开发人员" style="text;html=1;strokeColor=none;fillColor=none;align=center;verticalAlign=middle;whiteSpace=wrap;rounded=0;" vertex="1" parent="1">
          <mxGeometry x="15" y="210" width="50" height="20" as="geometry" />
        </mxCell>
        <mxCell id="ySgAJ4QI3XLkfdpez1up-17" value="开发人员" style="text;html=1;strokeColor=none;fillColor=none;align=center;verticalAlign=middle;whiteSpace=wrap;rounded=0;" vertex="1" parent="1">
          <mxGeometry x="15" y="280" width="50" height="20" as="geometry" />
        </mxCell>
        <mxCell id="ySgAJ4QI3XLkfdpez1up-18" value="&lt;font style=&quot;font-size: 14px&quot;&gt;192.168.8.101&lt;br&gt;代码托管服务器&lt;/font&gt;" style="text;html=1;strokeColor=none;fillColor=none;align=center;verticalAlign=middle;whiteSpace=wrap;rounded=0;" vertex="1" parent="1">
          <mxGeometry x="160" y="90" width="100" height="50" as="geometry" />
        </mxCell>
        <mxCell id="ySgAJ4QI3XLkfdpez1up-23" value="" style="edgeStyle=orthogonalEdgeStyle;rounded=0;orthogonalLoop=1;jettySize=auto;html=1;" edge="1" parent="1" source="ySgAJ4QI3XLkfdpez1up-19" target="ySgAJ4QI3XLkfdpez1up-22">
          <mxGeometry relative="1" as="geometry" />
        </mxCell>
        <mxCell id="ySgAJ4QI3XLkfdpez1up-24" value="拉取代码" style="edgeLabel;html=1;align=center;verticalAlign=middle;resizable=0;points=[];" vertex="1" connectable="0" parent="ySgAJ4QI3XLkfdpez1up-23">
          <mxGeometry x="-0.32" relative="1" as="geometry">
            <mxPoint as="offset" />
          </mxGeometry>
        </mxCell>
        <mxCell id="ySgAJ4QI3XLkfdpez1up-19" value="Gitlab代码仓库" style="ellipse;shape=cloud;whiteSpace=wrap;html=1;fillColor=#b1ddf0;strokeColor=#10739e;" vertex="1" parent="1">
          <mxGeometry x="160" y="150" width="100" height="80" as="geometry" />
        </mxCell>
        <mxCell id="ySgAJ4QI3XLkfdpez1up-21" value="&lt;font style=&quot;font-size: 14px&quot;&gt;192.168.8.102&lt;br&gt;持续集成服务器&lt;/font&gt;" style="text;html=1;strokeColor=none;fillColor=none;align=center;verticalAlign=middle;whiteSpace=wrap;rounded=0;" vertex="1" parent="1">
          <mxGeometry x="350" y="90" width="100" height="50" as="geometry" />
        </mxCell>
        <mxCell id="ySgAJ4QI3XLkfdpez1up-22" value="Jenkins" style="ellipse;shape=cloud;whiteSpace=wrap;html=1;fillColor=#fad9d5;strokeColor=#ae4132;" vertex="1" parent="1">
          <mxGeometry x="350" y="170" width="100" height="80" as="geometry" />
        </mxCell>
        <mxCell id="ySgAJ4QI3XLkfdpez1up-25" value="编译、打包" style="text;html=1;strokeColor=#b46504;fillColor=#fad7ac;align=center;verticalAlign=middle;whiteSpace=wrap;rounded=0;" vertex="1" parent="1">
          <mxGeometry x="350" y="265" width="100" height="25" as="geometry" />
        </mxCell>
        <mxCell id="ySgAJ4QI3XLkfdpez1up-26" value="构建镜像" style="text;html=1;strokeColor=#b46504;fillColor=#fad7ac;align=center;verticalAlign=middle;whiteSpace=wrap;rounded=0;" vertex="1" parent="1">
          <mxGeometry x="350" y="320" width="100" height="20" as="geometry" />
        </mxCell>
        <mxCell id="ySgAJ4QI3XLkfdpez1up-27" value="上传镜像" style="text;html=1;strokeColor=#b46504;fillColor=#fad7ac;align=center;verticalAlign=middle;whiteSpace=wrap;rounded=0;" vertex="1" parent="1">
          <mxGeometry x="350" y="370" width="100" height="20" as="geometry" />
        </mxCell>
        <mxCell id="ySgAJ4QI3XLkfdpez1up-28" value="删除镜像" style="text;html=1;strokeColor=#b46504;fillColor=#fad7ac;align=center;verticalAlign=middle;whiteSpace=wrap;rounded=0;" vertex="1" parent="1">
          <mxGeometry x="350" y="420" width="100" height="25" as="geometry" />
        </mxCell>
        <mxCell id="ySgAJ4QI3XLkfdpez1up-66" value="" style="edgeStyle=orthogonalEdgeStyle;rounded=0;orthogonalLoop=1;jettySize=auto;html=1;entryX=0;entryY=0.75;entryDx=0;entryDy=0;" edge="1" parent="1" source="ySgAJ4QI3XLkfdpez1up-29" target="ySgAJ4QI3XLkfdpez1up-47">
          <mxGeometry relative="1" as="geometry">
            <Array as="points">
              <mxPoint x="510" y="480" />
              <mxPoint x="510" y="436" />
            </Array>
          </mxGeometry>
        </mxCell>
        <mxCell id="ySgAJ4QI3XLkfdpez1up-29" value="项目部署" style="text;html=1;strokeColor=#b46504;fillColor=#fad7ac;align=center;verticalAlign=middle;whiteSpace=wrap;rounded=0;" vertex="1" parent="1">
          <mxGeometry x="350" y="470" width="100" height="25" as="geometry" />
        </mxCell>
        <mxCell id="ySgAJ4QI3XLkfdpez1up-35" value="" style="endArrow=classic;html=1;exitX=0.5;exitY=1;exitDx=0;exitDy=0;" edge="1" parent="1" source="ySgAJ4QI3XLkfdpez1up-25">
          <mxGeometry width="50" height="50" relative="1" as="geometry">
            <mxPoint x="390" y="400" as="sourcePoint" />
            <mxPoint x="400" y="320" as="targetPoint" />
          </mxGeometry>
        </mxCell>
        <mxCell id="ySgAJ4QI3XLkfdpez1up-40" value="" style="endArrow=classic;html=1;exitX=0.5;exitY=1;exitDx=0;exitDy=0;entryX=0.5;entryY=0;entryDx=0;entryDy=0;" edge="1" parent="1" source="ySgAJ4QI3XLkfdpez1up-26" target="ySgAJ4QI3XLkfdpez1up-27">
          <mxGeometry width="50" height="50" relative="1" as="geometry">
            <mxPoint x="390" y="400" as="sourcePoint" />
            <mxPoint x="440" y="350" as="targetPoint" />
          </mxGeometry>
        </mxCell>
        <mxCell id="ySgAJ4QI3XLkfdpez1up-41" value="" style="endArrow=classic;html=1;entryX=0.5;entryY=0;entryDx=0;entryDy=0;exitX=0.5;exitY=1;exitDx=0;exitDy=0;" edge="1" parent="1" source="ySgAJ4QI3XLkfdpez1up-27" target="ySgAJ4QI3XLkfdpez1up-28">
          <mxGeometry width="50" height="50" relative="1" as="geometry">
            <mxPoint x="390" y="400" as="sourcePoint" />
            <mxPoint x="440" y="350" as="targetPoint" />
          </mxGeometry>
        </mxCell>
        <mxCell id="ySgAJ4QI3XLkfdpez1up-42" value="" style="endArrow=classic;html=1;entryX=0.5;entryY=0;entryDx=0;entryDy=0;exitX=0.5;exitY=1;exitDx=0;exitDy=0;" edge="1" parent="1" source="ySgAJ4QI3XLkfdpez1up-28" target="ySgAJ4QI3XLkfdpez1up-29">
          <mxGeometry width="50" height="50" relative="1" as="geometry">
            <mxPoint x="390" y="400" as="sourcePoint" />
            <mxPoint x="440" y="350" as="targetPoint" />
          </mxGeometry>
        </mxCell>
        <mxCell id="ySgAJ4QI3XLkfdpez1up-44" value="Harbor镜像仓库" style="ellipse;shape=cloud;whiteSpace=wrap;html=1;fillColor=#b1ddf0;strokeColor=#10739e;" vertex="1" parent="1">
          <mxGeometry x="570" y="150" width="100" height="80" as="geometry" />
        </mxCell>
        <mxCell id="ySgAJ4QI3XLkfdpez1up-45" value="&lt;font style=&quot;font-size: 14px&quot;&gt;192.168.8.103&lt;br&gt;Docker仓库服务器&lt;/font&gt;" style="text;html=1;strokeColor=none;fillColor=none;align=center;verticalAlign=middle;whiteSpace=wrap;rounded=0;" vertex="1" parent="1">
          <mxGeometry x="560" y="80" width="120" height="50" as="geometry" />
        </mxCell>
        <mxCell id="ySgAJ4QI3XLkfdpez1up-46" value="&lt;font style=&quot;font-size: 14px&quot;&gt;192.168.8.104&lt;br&gt;生产部署服务器&lt;br&gt;&lt;/font&gt;" style="text;html=1;strokeColor=none;fillColor=none;align=center;verticalAlign=middle;whiteSpace=wrap;rounded=0;" vertex="1" parent="1">
          <mxGeometry x="570" y="330" width="110" height="50" as="geometry" />
        </mxCell>
        <mxCell id="ySgAJ4QI3XLkfdpez1up-47" value="删除镜像" style="text;html=1;strokeColor=#b46504;fillColor=#fad7ac;align=center;verticalAlign=middle;whiteSpace=wrap;rounded=0;" vertex="1" parent="1">
          <mxGeometry x="570" y="417.5" width="100" height="25" as="geometry" />
        </mxCell>
        <mxCell id="ySgAJ4QI3XLkfdpez1up-48" value="拉取镜像" style="text;html=1;strokeColor=#b46504;fillColor=#fad7ac;align=center;verticalAlign=middle;whiteSpace=wrap;rounded=0;" vertex="1" parent="1">
          <mxGeometry x="570" y="455" width="100" height="25" as="geometry" />
        </mxCell>
        <mxCell id="ySgAJ4QI3XLkfdpez1up-49" value="创建容器" style="text;html=1;strokeColor=#b46504;fillColor=#fad7ac;align=center;verticalAlign=middle;whiteSpace=wrap;rounded=0;" vertex="1" parent="1">
          <mxGeometry x="570" y="495" width="100" height="25" as="geometry" />
        </mxCell>
        <mxCell id="ySgAJ4QI3XLkfdpez1up-51" value="" style="shape=actor;whiteSpace=wrap;html=1;" vertex="1" parent="1">
          <mxGeometry x="750" y="480" width="40" height="40" as="geometry" />
        </mxCell>
        <mxCell id="ySgAJ4QI3XLkfdpez1up-52" value="用户" style="text;html=1;strokeColor=none;fillColor=none;align=center;verticalAlign=middle;whiteSpace=wrap;rounded=0;" vertex="1" parent="1">
          <mxGeometry x="750" y="515" width="40" height="32.5" as="geometry" />
        </mxCell>
        <mxCell id="ySgAJ4QI3XLkfdpez1up-53" value="" style="endArrow=classic;html=1;exitX=0;exitY=0.75;exitDx=0;exitDy=0;" edge="1" parent="1" source="ySgAJ4QI3XLkfdpez1up-51">
          <mxGeometry width="50" height="50" relative="1" as="geometry">
            <mxPoint x="620" y="557.5" as="sourcePoint" />
            <mxPoint x="670" y="507.5" as="targetPoint" />
          </mxGeometry>
        </mxCell>
        <mxCell id="ySgAJ4QI3XLkfdpez1up-54" value="访问" style="edgeLabel;html=1;align=center;verticalAlign=middle;resizable=0;points=[];" vertex="1" connectable="0" parent="ySgAJ4QI3XLkfdpez1up-53">
          <mxGeometry x="0.1512" y="-2" relative="1" as="geometry">
            <mxPoint as="offset" />
          </mxGeometry>
        </mxCell>
        <mxCell id="ySgAJ4QI3XLkfdpez1up-55" value="" style="endArrow=classic;html=1;" edge="1" parent="1">
          <mxGeometry width="50" height="50" relative="1" as="geometry">
            <mxPoint x="619.5" y="430" as="sourcePoint" />
            <mxPoint x="619.5" y="455" as="targetPoint" />
          </mxGeometry>
        </mxCell>
        <mxCell id="ySgAJ4QI3XLkfdpez1up-58" value="" style="endArrow=classic;html=1;entryX=0;entryY=0.75;entryDx=0;entryDy=0;" edge="1" parent="1" target="ySgAJ4QI3XLkfdpez1up-48">
          <mxGeometry width="50" height="50" relative="1" as="geometry">
            <mxPoint x="450" y="480" as="sourcePoint" />
            <mxPoint x="500" y="430" as="targetPoint" />
          </mxGeometry>
        </mxCell>
        <mxCell id="ySgAJ4QI3XLkfdpez1up-67" value="SSH远程调用" style="edgeLabel;html=1;align=center;verticalAlign=middle;resizable=0;points=[];" vertex="1" connectable="0" parent="ySgAJ4QI3XLkfdpez1up-58">
          <mxGeometry x="-0.0534" y="-4" relative="1" as="geometry">
            <mxPoint as="offset" />
          </mxGeometry>
        </mxCell>
        <mxCell id="ySgAJ4QI3XLkfdpez1up-59" value="" style="endArrow=classic;html=1;entryX=0;entryY=0.5;entryDx=0;entryDy=0;" edge="1" parent="1" target="ySgAJ4QI3XLkfdpez1up-49">
          <mxGeometry width="50" height="50" relative="1" as="geometry">
            <mxPoint x="450" y="480" as="sourcePoint" />
            <mxPoint x="500" y="430" as="targetPoint" />
            <Array as="points">
              <mxPoint x="510" y="480" />
              <mxPoint x="510" y="510" />
            </Array>
          </mxGeometry>
        </mxCell>
        <mxCell id="ySgAJ4QI3XLkfdpez1up-61" value="" style="endArrow=classic;html=1;exitX=1;exitY=0.5;exitDx=0;exitDy=0;" edge="1" parent="1" source="ySgAJ4QI3XLkfdpez1up-27">
          <mxGeometry width="50" height="50" relative="1" as="geometry">
            <mxPoint x="460" y="380" as="sourcePoint" />
            <mxPoint x="580" y="190" as="targetPoint" />
            <Array as="points">
              <mxPoint x="500" y="380" />
              <mxPoint x="500" y="190" />
            </Array>
          </mxGeometry>
        </mxCell>
        <mxCell id="ySgAJ4QI3XLkfdpez1up-63" value="push" style="edgeLabel;html=1;align=center;verticalAlign=middle;resizable=0;points=[];" vertex="1" connectable="0" parent="ySgAJ4QI3XLkfdpez1up-61">
          <mxGeometry x="0.2452" y="-1" relative="1" as="geometry">
            <mxPoint as="offset" />
          </mxGeometry>
        </mxCell>
        <mxCell id="ySgAJ4QI3XLkfdpez1up-62" value="" style="endArrow=classic;html=1;" edge="1" parent="1" target="ySgAJ4QI3XLkfdpez1up-49">
          <mxGeometry width="50" height="50" relative="1" as="geometry">
            <mxPoint x="620" y="470" as="sourcePoint" />
            <mxPoint x="670" y="420" as="targetPoint" />
          </mxGeometry>
        </mxCell>
      </root>
    </mxGraphModel>
  </diagram>
</mxfile>
